<svg xmlns="http://www.w3.org/2000/svg" version="1.1" xmlns:xlink="http://www.w3.org/1999/xlink" xmlns:svgjs="http://svgjs.com/svgjs" height="145.89646768925917" width="323.51953125"><defs id="SvgjsDefs1006"></defs><g id="SvgjsG1007" rel="mainfill" name="main_text" xmlns:name="main_text" transform="translate(34.044921875,-129.18165731074083)" fill="#1b0e91"><path d="M13.70 225.62L21.69 225.62L21.69 221.28L1.37 221.28L1.37 225.62L9.36 225.62L9.36 240L13.70 240ZM1.37 212.38L21.69 212.38L21.69 208.04L1.37 208.04ZM31.73 208.04L27.62 208.04L27.62 212.61L31.73 212.61ZM23.51 235.89L23.51 240L35.84 240L35.84 235.89L31.73 235.89L31.73 217.63L24.42 217.63L24.42 221.74L27.62 221.74L27.62 235.89ZM43.60 217.63L36.29 217.63L36.29 221.74L39.49 221.74L39.49 240L43.60 240L43.60 223.56C43.60 223.56 45.43 221.28 47.94 221.28C49.76 221.28 51.36 222.88 51.36 224.93L51.36 240L55.47 240L55.47 223.56C55.47 223.56 57.30 221.28 59.81 221.28C61.63 221.28 63.23 222.88 63.23 224.93L63.23 240L67.34 240L67.34 224.93C67.34 220.37 64.14 217.17 60.72 217.17C56.84 217.17 54.56 220.83 54.56 220.83C54.56 220.83 52.73 217.17 48.85 217.17C45.43 217.17 43.65 219.78 43.60 219.91ZM72.82 232.24C72.82 236.80 76.01 240 80.58 240L87.88 240L87.88 235.89L80.58 235.89C78.53 235.89 76.93 234.29 76.93 232.24L76.93 231.10L89.25 231.10L89.25 225.39C89.25 220.60 85.83 217.17 81.04 217.17C76.24 217.17 72.82 220.60 72.82 225.39ZM81.04 221.28C83.32 221.28 85.14 223.11 85.14 225.39L85.14 227.22L76.93 227.22L76.93 225.39C76.93 223.11 78.75 221.28 81.04 221.28ZM112.08 225.62L120.07 225.62L120.07 221.28L99.75 221.28L99.75 225.62L107.74 225.62L107.74 240L112.08 240ZM99.75 212.38L120.07 212.38L120.07 208.04L99.75 208.04ZM133.77 240L133.77 235.89L129.66 235.89L129.66 224.02C129.66 224.02 131.48 221.74 134.22 221.74L136.96 221.74L136.96 217.17L135.14 217.17C131.48 217.17 129.66 219.91 129.66 219.91L129.66 217.63L122.35 217.63L122.35 221.74L125.55 221.74L125.55 235.89L121.44 235.89L121.44 240ZM145.64 240L155.22 240L155.22 224.93C155.22 220.60 152.26 217.63 147.92 217.63L141.98 217.63L141.98 221.74L147.92 221.74C149.75 221.74 151.12 223.11 151.12 224.93L151.12 226.30L145.64 226.30C141.53 226.30 138.79 229.04 138.79 233.15C138.79 237.26 141.53 240 145.64 240ZM145.64 230.41L151.12 230.41L151.12 235.89L145.64 235.89C144.04 235.89 142.90 234.75 142.90 233.15C142.90 231.55 144.04 230.41 145.64 230.41ZM160.70 232.01C160.70 237.03 164.13 240.46 169.15 240.46C175.31 240.46 176.68 235.66 176.68 235.66L173.26 233.61C173.26 233.61 172.34 236.35 169.15 236.35C166.64 236.35 164.81 234.52 164.81 232.01L164.81 225.62C164.81 223.11 166.64 221.28 169.15 221.28C172.34 221.28 173.26 224.02 173.26 224.02L176.68 221.97C176.68 221.97 175.31 217.17 169.15 217.17C164.13 217.17 160.70 220.60 160.70 225.62ZM185.36 208.04L178.05 208.04L178.05 212.15L181.25 212.15L181.25 240L185.36 240L185.36 230.87L189.24 230.87L193.80 240L198.14 240L192.43 228.81L198.14 217.63L193.80 217.63L189.24 226.76L185.36 226.76ZM207.27 208.04L203.16 208.04L203.16 212.61L207.27 212.61ZM199.05 235.89L199.05 240L211.38 240L211.38 235.89L207.27 235.89L207.27 217.63L199.96 217.63L199.96 221.74L203.16 221.74L203.16 235.89ZM219.14 217.63L211.83 217.63L211.83 221.74L215.03 221.74L215.03 240L219.14 240L219.14 223.56C219.14 223.56 220.97 221.28 223.71 221.28C225.76 221.28 227.36 222.88 227.36 224.93L227.36 240L231.47 240L231.47 224.93C231.47 220.37 228.27 217.17 224.62 217.17C220.97 217.17 219.14 219.91 219.14 219.91ZM235.58 242.51C235.58 246.62 238.54 249.59 242.88 249.59L245.39 249.59C249.73 249.59 252.70 246.62 252.70 242.51C252.70 238.40 249.73 235.43 245.39 235.43L242.19 235.43C241.05 235.43 240.37 234.75 240.37 233.61C240.37 232.47 241.05 231.78 242.19 231.78L244.48 231.78C248.81 231.78 251.78 228.81 251.78 224.71C251.78 223.11 250.91 221.74 250.91 221.74L254.06 221.74L254.06 217.63L243.34 217.63C239.00 217.63 236.03 220.60 236.03 224.71C236.03 228.13 238.54 229.96 238.54 229.96C238.54 229.96 236.72 231.33 236.72 233.61C236.72 235.89 238.54 237.26 238.54 237.26C238.54 237.26 235.58 239.09 235.58 242.51ZM243.34 227.67C241.51 227.67 240.14 226.30 240.14 224.71C240.14 223.11 241.51 221.74 243.34 221.74L244.48 221.74C246.30 221.74 247.67 223.11 247.67 224.71C247.67 226.30 246.30 227.67 244.48 227.67ZM245.39 239.54C247.22 239.54 248.59 240.91 248.59 242.51C248.59 244.11 247.22 245.48 245.39 245.48L242.88 245.48C241.05 245.48 239.68 244.11 239.68 242.51C239.68 240.91 241.05 239.54 242.88 239.54Z" fill="#7E8AA2" style="fill: rgb(126, 138, 162);"></path></g><g id="SvgjsG1008" rel="mainfill" name="slogan_text" xmlns:name="slogan_text" transform="translate(-0.08984375,-94.32228231074083)" fill="#7E8AA2"><path d="M0.28 225.35C0.17 225.35 0.09 225.46 0.09 225.57L0.09 226.66C0.09 226.79 0.17 226.88 0.28 226.88L5.21 226.88L5.21 239.81C5.21 239.91 5.29 240 5.42 240L6.71 240C6.84 240 6.93 239.91 6.93 239.81L6.93 226.88L11.85 226.88C11.96 226.88 12.05 226.79 12.05 226.66L12.05 225.57C12.05 225.46 11.96 225.35 11.85 225.35ZM22.28 230.49L22.28 239.81C22.28 239.91 22.39 240 22.50 240L23.66 240C23.77 240 23.85 239.91 23.85 239.81L23.85 230.49C23.85 230.39 23.77 230.28 23.66 230.28L22.50 230.28C22.39 230.28 22.28 230.39 22.28 230.49ZM23.06 226.60C23.57 226.60 24.00 226.19 24.00 225.65C24.00 225.14 23.57 224.73 23.06 224.73C22.54 224.73 22.11 225.14 22.11 225.65C22.11 226.19 22.54 226.60 23.06 226.60ZM37.10 231.44L37.10 230.49C37.10 230.39 37.00 230.28 36.89 230.28L35.79 230.28C35.68 230.28 35.58 230.39 35.58 230.49L35.58 239.81C35.58 239.91 35.68 240 35.79 240L36.97 240C37.08 240 37.17 239.91 37.17 239.81L37.17 234.97C37.17 233.96 37.38 233.10 37.73 232.51C38.18 231.78 38.89 231.48 39.68 231.48C40.44 231.48 41.04 231.70 41.45 232.15C41.88 232.62 42.09 233.42 42.09 234.41L42.09 239.81C42.09 239.91 42.20 240 42.31 240L43.49 240C43.60 240 43.69 239.91 43.69 239.81L43.69 235.18C43.69 234.08 43.84 233.20 44.24 232.51C44.70 231.78 45.41 231.48 46.20 231.48C46.95 231.48 47.56 231.70 47.97 232.15C48.40 232.62 48.61 233.42 48.61 234.41L48.61 239.81C48.61 239.91 48.72 240 48.83 240L50.01 240C50.12 240 50.20 239.91 50.20 239.81L50.20 234.02C50.20 232.60 49.79 231.65 49.17 231.05C48.48 230.36 47.54 230.11 46.52 230.11C45.81 230.11 45.10 230.26 44.52 230.62C43.86 231.05 43.47 231.61 43.23 232.13C43.02 231.55 42.67 231.10 42.20 230.75C41.60 230.30 40.82 230.11 40.01 230.11C38.78 230.11 37.81 230.58 37.17 231.44ZM62.81 234.45C62.85 233.68 63.13 232.92 63.58 232.39C64.12 231.76 64.94 231.37 66.01 231.37C66.98 231.37 67.75 231.76 68.25 232.30C68.72 232.84 69.00 233.57 69.04 234.45ZM66.40 238.92C65.22 238.92 64.27 238.49 63.65 237.74C63.15 237.16 62.87 236.41 62.81 235.59L70.29 235.59C70.44 235.59 70.55 235.50 70.55 235.35C70.64 233.83 70.25 232.56 69.54 231.65C68.79 230.73 67.58 230.11 66.01 230.11C64.46 230.11 63.28 230.64 62.46 231.53C61.65 232.41 61.17 233.65 61.17 235.03C61.17 236.49 61.62 237.74 62.44 238.64C63.32 239.66 64.66 240.22 66.27 240.22C67.78 240.22 69.17 239.72 69.97 239.18C70.08 239.10 70.12 239.01 70.06 238.90L69.65 238.11C69.60 238.02 69.50 237.96 69.32 238.06C68.53 238.54 67.58 238.92 66.40 238.92ZM85.69 231.55C86.45 231.55 87.03 231.80 87.54 232.17C87.67 232.26 87.80 232.24 87.87 232.13L88.34 231.16C88.40 231.05 88.38 230.97 88.27 230.88C87.65 230.39 86.90 230.11 85.95 230.11C84.66 230.11 83.71 230.64 83.22 231.68L83.15 231.68L83.15 230.49C83.15 230.39 83.05 230.28 82.94 230.28L81.84 230.28C81.74 230.28 81.63 230.39 81.63 230.49L81.63 239.81C81.63 239.91 81.74 240 81.84 240L83.03 240C83.13 240 83.22 239.91 83.22 239.81L83.22 235.25C83.22 234.30 83.41 233.14 83.95 232.41C84.38 231.83 84.98 231.55 85.69 231.55ZM114.92 240.22C116.36 240.22 117.74 239.81 118.75 238.88C119.72 238.00 120.34 236.64 120.34 234.73L120.34 225.57C120.34 225.46 120.24 225.35 120.13 225.35L118.82 225.35C118.71 225.35 118.62 225.46 118.62 225.57L118.62 234.60C118.62 235.98 118.28 236.99 117.63 237.66C116.95 238.37 115.93 238.69 114.92 238.69C113.87 238.69 112.90 238.26 112.02 237.46C111.89 237.35 111.78 237.42 111.72 237.53L111.12 238.54C111.05 238.67 111.07 238.75 111.18 238.86C112.11 239.61 113.46 240.22 114.92 240.22ZM131.89 235.89C131.89 237.14 132.11 237.91 132.60 238.64C133.29 239.66 134.60 240.22 136.37 240.22C138.11 240.22 139.42 239.66 140.11 238.64C140.61 237.91 140.82 237.14 140.82 235.89L140.82 230.49C140.82 230.39 140.73 230.28 140.63 230.28L139.47 230.28C139.36 230.28 139.25 230.39 139.25 230.49L139.25 235.74C139.25 236.60 139.16 237.14 138.86 237.66C138.50 238.34 137.66 238.82 136.37 238.82C135.08 238.82 134.26 238.32 133.85 237.63C133.57 237.12 133.46 236.60 133.46 235.74L133.46 230.49C133.46 230.39 133.38 230.28 133.25 230.28L132.09 230.28C131.98 230.28 131.89 230.39 131.89 230.49ZM155.08 238.95C154.03 238.95 153.15 238.62 152.41 238.17C152.29 238.09 152.20 238.13 152.13 238.26L151.70 239.14C151.64 239.25 151.66 239.33 151.79 239.40C152.44 239.78 153.55 240.22 155.15 240.22C157.34 240.22 158.74 239.12 158.74 237.35C158.74 236.19 158.05 235.44 156.95 234.92C156.31 234.60 155.34 234.34 154.61 234.02C153.96 233.74 153.43 233.42 153.43 232.71C153.43 231.85 154.07 231.40 155.40 231.40C156.20 231.40 157.02 231.61 157.75 232.02C157.88 232.11 157.96 232.08 158.03 231.96L158.46 231.07C158.50 230.97 158.50 230.88 158.35 230.79C157.71 230.43 156.67 230.08 155.34 230.08C153.06 230.08 151.79 231.07 151.79 232.71C151.79 233.89 152.46 234.62 153.38 235.05C154.16 235.42 155.10 235.68 155.73 235.96C156.50 236.30 157.10 236.67 157.10 237.48C157.10 238.52 156.35 238.95 155.08 238.95ZM171.62 231.53L175.00 231.53C175.11 231.53 175.21 231.44 175.21 231.33L175.21 230.49C175.21 230.39 175.11 230.28 175.00 230.28L171.62 230.28L171.62 228.41C171.62 228.30 171.51 228.19 171.41 228.19L170.25 228.19C170.14 228.19 170.03 228.30 170.03 228.41L170.03 230.28L168.89 230.28C168.78 230.28 168.68 230.39 168.68 230.49L168.68 231.33C168.68 231.44 168.78 231.53 168.89 231.53L170.03 231.53L170.03 236.77C170.03 237.74 170.20 238.64 170.70 239.27C171.17 239.85 171.92 240.22 173.08 240.22C174.12 240.22 175.11 239.94 175.86 239.40C175.97 239.31 176.01 239.23 175.95 239.12L175.56 238.28C175.49 238.17 175.39 238.15 175.24 238.26C174.61 238.71 174.05 238.86 173.47 238.86C172.70 238.86 172.22 238.62 171.94 238.15C171.71 237.78 171.62 237.25 171.62 236.58ZM201.84 233.42L208.68 233.42C208.79 233.42 208.88 233.33 208.88 233.22L208.88 232.11C208.88 232.00 208.79 231.91 208.68 231.91L201.84 231.91L201.84 226.88L209.74 226.88C209.84 226.88 209.93 226.79 209.93 226.66L209.93 225.57C209.93 225.46 209.84 225.35 209.74 225.35L200.32 225.35C200.21 225.35 200.12 225.46 200.12 225.57L200.12 239.81C200.12 239.91 200.21 240 200.32 240L201.63 240C201.74 240 201.84 239.91 201.84 239.81ZM221.70 235.16C221.70 234.13 222.04 233.20 222.66 232.54C223.29 231.83 224.21 231.40 225.29 231.40C226.36 231.40 227.29 231.83 227.91 232.54C228.54 233.20 228.88 234.13 228.88 235.16C228.88 236.19 228.54 237.12 227.91 237.78C227.29 238.49 226.36 238.92 225.29 238.92C224.21 238.92 223.29 238.49 222.66 237.78C222.04 237.12 221.70 236.19 221.70 235.16ZM220.15 235.16C220.15 236.62 220.68 237.87 221.59 238.75C222.51 239.68 223.83 240.22 225.29 240.22C226.75 240.22 228.06 239.68 228.99 238.75C229.89 237.87 230.43 236.62 230.43 235.16C230.43 233.70 229.89 232.45 228.99 231.57C228.06 230.64 226.75 230.11 225.29 230.11C223.83 230.11 222.51 230.64 221.59 231.57C220.68 232.45 220.15 233.70 220.15 235.16ZM245.59 231.55C246.35 231.55 246.93 231.80 247.44 232.17C247.57 232.26 247.70 232.24 247.76 232.13L248.24 231.16C248.30 231.05 248.28 230.97 248.17 230.88C247.55 230.39 246.80 230.11 245.85 230.11C244.56 230.11 243.61 230.64 243.12 231.68L243.05 231.68L243.05 230.49C243.05 230.39 242.95 230.28 242.84 230.28L241.74 230.28C241.63 230.28 241.53 230.39 241.53 230.49L241.53 239.81C241.53 239.91 241.63 240 241.74 240L242.93 240C243.03 240 243.12 239.91 243.12 239.81L243.12 235.25C243.12 234.30 243.31 233.14 243.85 232.41C244.28 231.83 244.88 231.55 245.59 231.55ZM277.30 231.87L272.82 225.57C272.74 225.42 272.65 225.35 272.48 225.35L270.99 225.35C270.76 225.35 270.74 225.52 270.84 225.67L276.44 233.57L276.44 239.81C276.44 239.91 276.52 240 276.65 240L277.94 240C278.07 240 278.16 239.91 278.16 239.81L278.16 233.57L283.77 225.67C283.88 225.52 283.84 225.35 283.62 225.35L282.12 225.35C281.94 225.35 281.86 225.44 281.79 225.57ZM295.00 235.16C295.00 234.13 295.34 233.20 295.97 232.54C296.59 231.83 297.52 231.40 298.59 231.40C299.67 231.40 300.59 231.83 301.22 232.54C301.84 233.20 302.18 234.13 302.18 235.16C302.18 236.19 301.84 237.12 301.22 237.78C300.59 238.49 299.67 238.92 298.59 238.92C297.52 238.92 296.59 238.49 295.97 237.78C295.34 237.12 295.00 236.19 295.00 235.16ZM293.45 235.16C293.45 236.62 293.99 237.87 294.89 238.75C295.82 239.68 297.13 240.22 298.59 240.22C300.05 240.22 301.37 239.68 302.29 238.75C303.19 237.87 303.73 236.62 303.73 235.16C303.73 233.70 303.19 232.45 302.29 231.57C301.37 230.64 300.05 230.11 298.59 230.11C297.13 230.11 295.82 230.64 294.89 231.57C293.99 232.45 293.45 233.70 293.45 235.16ZM314.68 235.89C314.68 237.14 314.90 237.91 315.39 238.64C316.08 239.66 317.39 240.22 319.15 240.22C320.90 240.22 322.21 239.66 322.90 238.64C323.39 237.91 323.61 237.14 323.61 235.89L323.61 230.49C323.61 230.39 323.52 230.28 323.41 230.28L322.25 230.28C322.14 230.28 322.04 230.39 322.04 230.49L322.04 235.74C322.04 236.60 321.95 237.14 321.65 237.66C321.28 238.34 320.44 238.82 319.15 238.82C317.86 238.82 317.05 238.32 316.64 237.63C316.36 237.12 316.25 236.60 316.25 235.74L316.25 230.49C316.25 230.39 316.16 230.28 316.04 230.28L314.87 230.28C314.77 230.28 314.68 230.39 314.68 230.49Z" fill="#7E8AA2" style="fill: rgb(126, 138, 162);"></path></g><g id="SvgjsG1009" rel="mainfill" name="symbol" xmlns:name="symbol_mainfill" transform="translate(119.59014925782111,-11.922897000518503) scale(0.497111015005332)" fill="#7E8AA2"><path d="M87.99,152.44c-35.414,0-64.227-28.812-64.227-64.228h8.067c0,30.966,25.192,56.16,56.159,56.16s56.161-25.194,56.161-56.16  c0-30.966-25.194-56.16-56.161-56.16v-8.068c35.415,0,64.229,28.812,64.229,64.228S123.405,152.44,87.99,152.44z" fill="#7E8AA2" style="fill: rgb(126, 138, 162);"></path><polygon points="17.44,94.521 27.798,79.617 38.154,94.521 "></polygon><path d="M87.599,41.246c-3.262,0-5.906,2.645-5.906,5.907v41.106c0,3.262,2.645,5.907,5.906,5.907s5.905-2.646,5.905-5.907V47.153  C93.504,43.891,90.86,41.246,87.599,41.246z" fill="#7E8AA2" style="fill: rgb(126, 138, 162);"></path><path d="M55.835,97.553c0.927,3.126,4.213,4.91,7.34,3.984l26.152-7.75c3.127-0.926,4.914-4.212,3.986-7.339  c-0.925-3.129-4.212-4.912-7.338-3.986l-26.152,7.75C56.695,91.137,54.909,94.424,55.835,97.553z" fill="#7E8AA2" style="fill: rgb(126, 138, 162);"></path></g></svg>